<?xml version="1.0" encoding="utf-8"?>
<!-- Generator: Adobe Illustrator 28.0.0, SVG Export Plug-In . SVG Version: 6.00 Build 0)  -->
<svg version="1.1" id="Layer_1" xmlns="http://www.w3.org/2000/svg" xmlns:xlink="http://www.w3.org/1999/xlink" x="0px" y="0px"
	 viewBox="0 0 160 160" style="enable-background:new 0 0 160 160;" xml:space="preserve">
<style type="text/css">
	.st0{clip-path:url(#SVGID_00000054227582298310811600000005362749594035595197_);}
	.st1{fill:url(#SVGID_1_);}
	.st2{fill:url(#SVGID_00000039113490112081967620000003041668006893181580_);}
	.st3{clip-path:url(#SVGID_00000108290778220320871490000005357058131494649768_);}
	.st4{fill:url(#SVGID_00000127748595326659034090000006609738747126258849_);}
	.st5{clip-path:url(#SVGID_00000101815567829605417630000002570745551257055652_);}
	.st6{fill:url(#SVGID_00000143613599024469059340000001963843825103946394_);}
	.st7{clip-path:url(#SVGID_00000145054654960208006570000002120732100660459920_);}
	.st8{fill:url(#SVGID_00000160896875054296995500000000128957394281182870_);}
	.st9{opacity:0.14;fill:#FFFFFF;}
</style>
<g>
	<g>
		<g>
			<g>
				<defs>
					<path id="SVGID_00000023969314573665852520000004553390148003608765_" d="M48.8,111.2L48.8,111.2c-0.9-0.9-0.9-2.5,0-3.4
						l27.3-27.3c0.9-0.9,2.5-0.9,3.4,0v0c0.9,0.9,0.9,2.5,0,3.4l-27.3,27.3C51.3,112.2,49.7,112.2,48.8,111.2z"/>
				</defs>
				<clipPath id="SVGID_00000160179597900631814600000008395380169083762333_">
					<use xlink:href="#SVGID_00000023969314573665852520000004553390148003608765_"  style="overflow:visible;"/>
				</clipPath>
				<g style="clip-path:url(#SVGID_00000160179597900631814600000008395380169083762333_);">
				</g>
			</g>
		</g>
		<g>
			
				<linearGradient id="SVGID_1_" gradientUnits="userSpaceOnUse" x1="40.3936" y1="113.3896" x2="47.3136" y2="120.3096" gradientTransform="matrix(0.887 0.113 0.113 0.887 0.6462 -0.6462)">
				<stop  offset="0" style="stop-color:#591D03"/>
				<stop  offset="0.807" style="stop-color:#3C0800"/>
			</linearGradient>
			<path class="st1" d="M36.2,124.7l-0.8-0.8c-1.7-1.7-1.7-4.4,0-6.1l27.2-27.2c1.7-1.7,4.4-1.7,6.1,0l0.8,0.8
				c1.7,1.7,1.7,4.4,0,6.1l-27.2,27.2C40.6,126.3,37.8,126.3,36.2,124.7z"/>
			
				<linearGradient id="SVGID_00000084530225389554903890000005477392384568126850_" gradientUnits="userSpaceOnUse" x1="35.9978" y1="105.5104" x2="68.8009" y2="109.6909">
				<stop  offset="0.338" style="stop-color:#FFFFFF;stop-opacity:0"/>
				<stop  offset="1" style="stop-color:#FFFFFF;stop-opacity:0.4"/>
			</linearGradient>
			<path style="fill:url(#SVGID_00000084530225389554903890000005477392384568126850_);" d="M65.6,89.6c1.1,0,2.1,0.4,2.8,1.2
				l0.8,0.8c1.6,1.6,1.6,4.1,0,5.7l-27.2,27.2c-0.8,0.8-1.8,1.2-2.8,1.2c-1.1,0-2.1-0.4-2.8-1.2l-0.8-0.8c-1.6-1.6-1.6-4.1,0-5.7
				l27.2-27.2C63.5,90,64.5,89.6,65.6,89.6 M65.6,89.3c-1.1,0-2.2,0.4-3,1.3l-27.2,27.2c-1.7,1.7-1.7,4.4,0,6.1l0.8,0.8
				c0.8,0.8,1.9,1.3,3,1.3c1.1,0,2.2-0.4,3-1.3l27.2-27.2c1.7-1.7,1.7-4.4,0-6.1l-0.8-0.8C67.8,89.7,66.7,89.3,65.6,89.3L65.6,89.3z
				"/>
		</g>
	</g>
	<g>
		<g>
			<g>
				<defs>
					<circle id="SVGID_00000098219025160548292920000005247836192883446678_" cx="95.3" cy="64.7" r="30.6"/>
				</defs>
				<clipPath id="SVGID_00000137816891663887567060000001119389028335424444_">
					<use xlink:href="#SVGID_00000098219025160548292920000005247836192883446678_"  style="overflow:visible;"/>
				</clipPath>
				<g style="clip-path:url(#SVGID_00000137816891663887567060000001119389028335424444_);">
				</g>
			</g>
		</g>
		
			<radialGradient id="SVGID_00000171677531473713027540000004077020001414301083_" cx="95.2723" cy="64.7277" r="30.6408" gradientUnits="userSpaceOnUse">
			<stop  offset="0.8654" style="stop-color:#FFFFFF"/>
			<stop  offset="0.9534" style="stop-color:#FFFFFF;stop-opacity:0.1356"/>
			<stop  offset="0.9672" style="stop-color:#FFFFFF;stop-opacity:0"/>
			<stop  offset="1" style="stop-color:#FFFFFF"/>
		</radialGradient>
		<circle style="fill:url(#SVGID_00000171677531473713027540000004077020001414301083_);" cx="95.3" cy="64.7" r="30.6"/>
		<g>
			<g>
				<defs>
					<circle id="SVGID_00000036237878339136035270000002117334791912621190_" cx="95.3" cy="64.7" r="28.4"/>
				</defs>
				<clipPath id="SVGID_00000169556066817462525790000002145085707270181538_">
					<use xlink:href="#SVGID_00000036237878339136035270000002117334791912621190_"  style="overflow:visible;"/>
				</clipPath>
				<g style="clip-path:url(#SVGID_00000169556066817462525790000002145085707270181538_);">
				</g>
			</g>
			
				<linearGradient id="SVGID_00000124884439647948903260000003168223143243320483_" gradientUnits="userSpaceOnUse" x1="115.3449" y1="84.8003" x2="75.1997" y2="44.6551">
				<stop  offset="0.338" style="stop-color:#FFFFFF;stop-opacity:0"/>
				<stop  offset="1" style="stop-color:#FFFFFF;stop-opacity:0.4"/>
			</linearGradient>
			<path style="fill:url(#SVGID_00000124884439647948903260000003168223143243320483_);" d="M95.3,36.7c15.5,0,28.1,12.6,28.1,28.1
				s-12.6,28.1-28.1,28.1S67.2,80.2,67.2,64.7S79.8,36.7,95.3,36.7 M95.3,36.3c-15.7,0-28.4,12.7-28.4,28.4s12.7,28.4,28.4,28.4
				s28.4-12.7,28.4-28.4S110.9,36.3,95.3,36.3L95.3,36.3z"/>
		</g>
		<g>
			
				<image style="overflow:visible;opacity:0.19;" width="35" height="36" xlink:href="2BBE9B7C.png"  transform="matrix(1 0 0 1 78.0271 47.0271)">
			</image>
			<g>
				<g>
					<defs>
						<path id="SVGID_00000119094073252021811280000016714991850329712774_" d="M100.8,64.5l8.8-8.8c0.9-0.9,0.9-2.3,0-3.1l-2.7-2.7
							c-0.9-0.9-2.3-0.9-3.1,0l-8.8,8.8l-8.8-8.8c-0.9-0.9-2.3-0.9-3.1,0l-2.7,2.7c-0.9,0.9-0.9,2.3,0,3.1l8.8,8.8l-8.8,8.8
							c-0.9,0.9-0.9,2.3,0,3.1l2.7,2.7c0.9,0.9,2.3,0.9,3.1,0l8.8-8.8l8.8,8.8c0.9,0.9,2.3,0.9,3.1,0l2.7-2.7c0.9-0.9,0.9-2.3,0-3.1
							L100.8,64.5z"/>
					</defs>
					<clipPath id="SVGID_00000021834964637505181150000006450617863728606615_">
						<use xlink:href="#SVGID_00000119094073252021811280000016714991850329712774_"  style="overflow:visible;"/>
					</clipPath>
					<g style="clip-path:url(#SVGID_00000021834964637505181150000006450617863728606615_);">
					</g>
				</g>
				
					<linearGradient id="SVGID_00000053536562419495370860000006541917381823271597_" gradientUnits="userSpaceOnUse" x1="79.838" y1="64.4501" x2="110.2807" y2="64.4501">
					<stop  offset="0.338" style="stop-color:#FFFFFF;stop-opacity:0"/>
					<stop  offset="1" style="stop-color:#FFFFFF;stop-opacity:0.7"/>
				</linearGradient>
				<path style="fill:url(#SVGID_00000053536562419495370860000006541917381823271597_);" d="M105.4,49.6c0.5,0,1,0.2,1.3,0.5
					l2.7,2.7c0.7,0.7,0.7,1.9,0,2.6l-8.8,8.8l-0.2,0.2l0.2,0.2l8.8,8.8c0.4,0.4,0.5,0.8,0.5,1.3c0,0.5-0.2,1-0.5,1.3l-2.7,2.7
					c-0.4,0.4-0.8,0.5-1.3,0.5c-0.5,0-1-0.2-1.3-0.5L95.3,70l-0.2-0.2L94.8,70L86,78.8c-0.4,0.4-0.8,0.5-1.3,0.5
					c-0.5,0-1-0.2-1.3-0.5l-2.7-2.7c-0.7-0.7-0.7-1.9,0-2.6l8.8-8.8l0.2-0.2l-0.2-0.2l-8.8-8.8c-0.7-0.7-0.7-1.9,0-2.6l2.7-2.7
					c0.4-0.4,0.8-0.5,1.3-0.5c0.5,0,1,0.2,1.3,0.5l8.8,8.8l0.2,0.2l0.2-0.2l8.8-8.8C104.5,49.8,104.9,49.6,105.4,49.6 M105.4,49.2
					c-0.6,0-1.1,0.2-1.6,0.6l-8.8,8.8l-8.8-8.8c-0.4-0.4-1-0.6-1.6-0.6s-1.1,0.2-1.6,0.6l-2.7,2.7c-0.9,0.9-0.9,2.3,0,3.1l8.8,8.8
					l-8.8,8.8c-0.9,0.9-0.9,2.3,0,3.1l2.7,2.7c0.4,0.4,1,0.6,1.6,0.6s1.1-0.2,1.6-0.6l8.8-8.8l8.8,8.8c0.4,0.4,1,0.6,1.6,0.6
					c0.6,0,1.1-0.2,1.6-0.6l2.7-2.7c0.9-0.9,0.9-2.3,0-3.1l-8.8-8.8l8.8-8.8c0.9-0.9,0.9-2.3,0-3.1l-2.7-2.7
					C106.5,49.4,106,49.2,105.4,49.2L105.4,49.2z"/>
			</g>
		</g>
		<path class="st9" d="M122.6,57.2c-3.3-12-14.3-20.8-27.4-20.8c-15.7,0-28.4,12.7-28.4,28.4c0,4.8,1.2,9.3,3.3,13.3
			C72.8,71.8,83.5,56.1,122.6,57.2z"/>
	</g>
</g>
</svg>
